<?xml version="1.0" ?><svg viewBox="0 0 64 64" xmlns="http://www.w3.org/2000/svg"><title/><g id="Icons"><path d="M52.43,27.08A21,21,0,0,0,37.85,11.83a.254.254,0,0,0-.07-.02,20.991,20.991,0,0,0-17.2,2.56.052.052,0,0,1-.04.02c-.05.03-.1.06-.14.09a21.707,21.707,0,0,0-3.26,2.66,20.964,20.964,0,0,0-.68,28.98.55.55,0,0,0,.07.09c.2.22.4.43.62.65a21.064,21.064,0,0,0,29.71,0c.39-.4.71-.75.97-1.06a20.9,20.9,0,0,0,4.57-8.76A21.489,21.489,0,0,0,52.43,27.08ZM20.69,43.31a15.995,15.995,0,1,1,22.62,0A16.006,16.006,0,0,1,20.69,43.31Z" style="fill:white"/><path d="M13,52a1,1,0,0,1-.707-1.707l4.852-4.851a1,1,0,0,1,1.414,1.414l-4.852,4.851A1,1,0,0,1,13,52Z" style="fill:white"/><path d="M14.29,55.12,5.71,63.71a1.014,1.014,0,0,1-1.42,0l-4-4a1.008,1.008,0,0,1,0-1.42l8.59-8.58a3,3,0,0,1,4.24,0l1.17,1.17A3,3,0,0,1,14.29,55.12Z" style="fill:white"/><path d="M43,30a1,1,0,0,0-1,1H39.93a7.941,7.941,0,0,0-1.62-3.9l1.47-1.46a1,1,0,1,0,1.41-1.42l-1.41-1.41a1.008,1.008,0,0,0-1.42,0,1,1,0,0,0,0,1.41L36.9,25.69A7.941,7.941,0,0,0,33,24.07V22a1,1,0,0,0,0-2H31a1,1,0,0,0,0,2v2.07a7.941,7.941,0,0,0-3.9,1.62l-1.46-1.47a1,1,0,0,0,0-1.41,1.008,1.008,0,0,0-1.42,0l-1.41,1.41a1,1,0,0,0,1.41,1.42l1.47,1.46A7.941,7.941,0,0,0,24.07,31H22a1,1,0,0,0-2,0v2a1,1,0,0,0,2,0h2.07a7.941,7.941,0,0,0,1.62,3.9l-1.47,1.46a1,1,0,0,0-1.41,0,1.008,1.008,0,0,0,0,1.42l1.41,1.41a.992.992,0,0,0,.71.3,1.01,1.01,0,0,0,.71-.3,1,1,0,0,0,0-1.41l1.46-1.47A7.941,7.941,0,0,0,31,39.93V42a1,1,0,0,0,0,2h2a1,1,0,0,0,0-2V39.93a7.941,7.941,0,0,0,3.9-1.62l1.46,1.47a1,1,0,0,0,0,1.41,1.01,1.01,0,0,0,.71.3.992.992,0,0,0,.71-.3l1.41-1.41a1.008,1.008,0,0,0,0-1.42,1,1,0,0,0-1.41,0L38.31,36.9A7.941,7.941,0,0,0,39.93,33H42a1,1,0,0,0,2,0V31A1,1,0,0,0,43,30ZM29,31a1.355,1.355,0,0,1,.02-.2.636.636,0,0,1,.06-.18.757.757,0,0,1,.09-.18l.12-.15a1.009,1.009,0,0,1,.91-.27.636.636,0,0,1,.18.06.757.757,0,0,1,.18.09l.15.12.12.15a.757.757,0,0,1,.09.18.636.636,0,0,1,.06.18A1.355,1.355,0,0,1,31,31a1.052,1.052,0,0,1-.29.71l-.15.12a.757.757,0,0,1-.18.09.636.636,0,0,1-.18.06A1.355,1.355,0,0,1,30,32a.99.99,0,0,1-1-1Zm2.71,3.71A1,1,0,0,1,30,34a1.355,1.355,0,0,1,.02-.2.636.636,0,0,1,.06-.18.757.757,0,0,1,.09-.18l.12-.15a1.047,1.047,0,0,1,1.42,0l.12.15a.757.757,0,0,1,.09.18.636.636,0,0,1,.06.18A1.355,1.355,0,0,1,32,34,1.052,1.052,0,0,1,31.71,34.71Zm.91-3.79a.9.9,0,0,1-.54-.54.942.942,0,0,1,0-.76,1.155,1.155,0,0,1,.21-.33,1.032,1.032,0,0,1,.33-.21,1.017,1.017,0,0,1,1.09.21,1.155,1.155,0,0,1,.21.33.943.943,0,0,1,0,.76,1.155,1.155,0,0,1-.21.33A1.052,1.052,0,0,1,33,31,.838.838,0,0,1,32.62,30.92Zm2.09,2.79-.15.12a.757.757,0,0,1-.18.09.636.636,0,0,1-.18.06A1.355,1.355,0,0,1,34,34a1,1,0,0,1-.38-.08,1.155,1.155,0,0,1-.33-.21,1.014,1.014,0,0,1,0-1.42,1.155,1.155,0,0,1,.33-.21.956.956,0,0,1,.58-.06.636.636,0,0,1,.18.06.757.757,0,0,1,.18.09,1.576,1.576,0,0,1,.15.12,1.014,1.014,0,0,1,0,1.42Z" style="fill:white"/><path d="M13,6H11.9a5.038,5.038,0,0,0-.73-1.75l.54-.54a1,1,0,1,0-1.42-1.42l-.54.54A5.038,5.038,0,0,0,8,2.1V1A1,1,0,0,0,6,1V2.1a5.038,5.038,0,0,0-1.75.73l-.54-.54A1,1,0,0,0,2.29,3.71l.54.54A5.038,5.038,0,0,0,2.1,6H1A1,1,0,0,0,1,8H2.1a5.038,5.038,0,0,0,.73,1.75l-.54.54a1.008,1.008,0,0,0,0,1.42,1.014,1.014,0,0,0,1.42,0l.54-.54A5.038,5.038,0,0,0,6,11.9V13a1,1,0,0,0,2,0V11.9a5.038,5.038,0,0,0,1.75-.73l.54.54a1.014,1.014,0,0,0,1.42,0,1.008,1.008,0,0,0,0-1.42l-.54-.54A5.038,5.038,0,0,0,11.9,8H13a1,1,0,0,0,0-2ZM6.71,8.71a1.014,1.014,0,0,1-1.42,0A1,1,0,1,1,6.71,7.29a1.014,1.014,0,0,1,0,1.42Zm2-2A1,1,0,0,1,7,6a1,1,0,0,1,1.71-.71,1.014,1.014,0,0,1,0,1.42Z" style="fill:white"/><path d="M63,10H61.9a5.038,5.038,0,0,0-.73-1.75l.54-.54a1,1,0,1,0-1.42-1.42l-.54.54A5.038,5.038,0,0,0,58,6.1V5a1,1,0,0,0-2,0V6.1a5.038,5.038,0,0,0-1.75.73l-.54-.54a1,1,0,0,0-1.42,1.42l.54.54A5.038,5.038,0,0,0,52.1,10H51a1,1,0,0,0,0,2h1.1a5.038,5.038,0,0,0,.73,1.75l-.54.54a1.008,1.008,0,0,0,0,1.42,1.014,1.014,0,0,0,1.42,0l.54-.54A5.038,5.038,0,0,0,56,15.9V17a1,1,0,0,0,2,0V15.9a5.038,5.038,0,0,0,1.75-.73l.54.54a1.014,1.014,0,0,0,1.42,0,1.008,1.008,0,0,0,0-1.42l-.54-.54A5.038,5.038,0,0,0,61.9,12H63a1,1,0,0,0,0-2Zm-4.29,2.71A1.052,1.052,0,0,1,58,13a1,1,0,0,1-.38-.08.9.9,0,0,1-.54-.54A1,1,0,0,1,57,12a1.052,1.052,0,0,1,.29-.71,1.032,1.032,0,0,1,.33-.21,1.021,1.021,0,0,1,1.09.21,1.576,1.576,0,0,1,.12.15.757.757,0,0,1,.09.18.6.6,0,0,1,.06.19A1.225,1.225,0,0,1,59,12,1.052,1.052,0,0,1,58.71,12.71ZM56,11a1,1,0,0,1-.38-.08,1.032,1.032,0,0,1-.33-.21A1.052,1.052,0,0,1,55,10a1,1,0,0,1,.08-.38.9.9,0,0,1,.54-.54,1,1,0,0,1,.76,0,.9.9,0,0,1,.54.54A.838.838,0,0,1,57,10a.99.99,0,0,1-1,1Z" style="fill:white"/><path d="M55,56H53.9a5.038,5.038,0,0,0-.73-1.75l.54-.54a1,1,0,0,0-1.42-1.42l-.54.54A5.038,5.038,0,0,0,50,52.1V51a1,1,0,0,0-2,0v1.1a5.038,5.038,0,0,0-1.75.73l-.54-.54a1,1,0,0,0-1.42,1.42l.54.54A5.038,5.038,0,0,0,44.1,56H43a1,1,0,0,0,0,2h1.1a5.038,5.038,0,0,0,.73,1.75l-.54.54a1.008,1.008,0,0,0,0,1.42,1.014,1.014,0,0,0,1.42,0l.54-.54A5.038,5.038,0,0,0,48,61.9V63a1,1,0,0,0,2,0V61.9a5.038,5.038,0,0,0,1.75-.73l.54.54a1.014,1.014,0,0,0,1.42,0,1.008,1.008,0,0,0,0-1.42l-.54-.54A5.038,5.038,0,0,0,53.9,58H55a1,1,0,0,0,0-2Zm-6.02,2.2a.636.636,0,0,1-.06.18.757.757,0,0,1-.09.18.87.87,0,0,1-.27.27.757.757,0,0,1-.18.09.636.636,0,0,1-.18.06,1.01,1.01,0,0,1-.4,0,.636.636,0,0,1-.18-.06.757.757,0,0,1-.18-.09,1.576,1.576,0,0,1-.15-.12,1,1,0,0,1,1.42-1.42,1.576,1.576,0,0,1,.12.15.757.757,0,0,1,.09.18.636.636,0,0,1,.06.18,1.01,1.01,0,0,1,0,.4Zm1.73-1.49a1.155,1.155,0,0,1-.33.21A.838.838,0,0,1,50,57a1.052,1.052,0,0,1-.71-.29,1.576,1.576,0,0,1-.12-.15.757.757,0,0,1-.09-.18.636.636,0,0,1-.06-.18A1.5,1.5,0,0,1,49,56a1.052,1.052,0,0,1,.29-.71,1.017,1.017,0,0,1,1.09-.21,1.155,1.155,0,0,1,.33.21,1.014,1.014,0,0,1,0,1.42Z" style="fill:white"/></g></svg>